<svg xmlns="http://www.w3.org/2000/svg" viewBox="0 0 64 64" fill="none">
  <rect width="64" height="64" rx="12" fill="#FED2C5"/>
  <g transform="translate(9, 10) scale(0.98)">
    <mask id="m" style="mask-type:alpha" maskUnits="userSpaceOnUse" x="2" y="1" width="42" height="42">
      <circle cx="23" cy="22" r="21" fill="#D9D9D9"/>
    </mask>
    <g mask="url(#m)">
      <circle cx="23" cy="22" r="21" fill="#FED2C5"/>
      <path d="M26.5627 18.9261L21.2194 14.0202L19.5841 15.8013L20.26 17.9057L25.7703 20.132L26.5627 18.9261Z" fill="#F9B536"/>
      <path d="M20.5406 24.8923L25.8839 29.7982L27.5192 28.0171L26.8433 25.9126L21.333 23.6863L20.5406 24.8923Z" fill="#F9675F"/>
      <path d="M25.4636 30.0324L29.1437 33.8702L32.2528 34.4574L35.7863 31.5699L38.3431 26.4886L37.8308 19.9261L34.7592 14.5031L33.1714 9.95286L33.006 5.64548L34.5486 3.20627L28.7762 0.0810213L27.5592 3.25148L27.3188 8.61568L27.5243 12.029L29.5178 15.5225L30.7186 18.7117L31.9595 21.0068L32.0422 23.1605L30.3368 25.2341L27.9803 25.8452L27.8602 28.5273L25.4636 30.0324Z" fill="#F9B536"/>
      <path d="M30.3607 29.9953L30.4308 30.0222L30.8821 30.2438C30.981 30.2922 31.0693 30.3597 31.142 30.4422C31.2148 30.5248 31.2706 30.621 31.3062 30.7252C31.3419 30.8294 31.3566 30.9396 31.3497 31.0495C31.3428 31.1595 31.3143 31.267 31.2658 31.366C31.2174 31.465 31.15 31.5534 31.0674 31.6263C30.9848 31.6992 30.8887 31.7552 30.7846 31.7909C30.6805 31.8267 30.5703 31.8416 30.4605 31.8347C30.3507 31.8279 30.2433 31.7995 30.1444 31.7511L29.6931 31.5295C29.4899 31.441 29.3302 31.2754 29.2492 31.069C29.1681 30.8626 29.1723 30.6324 29.2608 30.429C29.3494 30.2255 29.515 30.0655 29.7212 29.9842C29.9275 29.9029 30.1575 29.9069 30.3607 29.9953Z" fill="#1E1E1E"/>
      <path d="M34.8017 4.36388C34.2529 5.05614 33.8231 5.90194 33.6359 6.9303C33.1355 9.67803 34.3261 12.3104 35.4139 14.0367C35.6801 14.4612 35.9625 14.8758 36.2624 15.315C37.1099 16.5588 37.9877 17.8446 38.4742 19.3348C39.0969 21.1939 39.342 23.1592 39.1949 25.1151C39.0139 27.2961 38.2778 29.1764 37.5767 30.7281C36.6033 32.8771 33.5791 36.4841 29.0598 34.7493C28.8852 34.6823 24.937 33.1273 24.9102 29.7546L21.0039 26.6044C20.9061 26.5239 20.0921 25.8265 20.0384 24.8623C20.0257 24.5999 20.069 24.3376 20.1653 24.0931C20.2616 23.8485 20.4089 23.6273 20.5972 23.444C20.6435 23.3981 20.6949 23.3578 20.7506 23.3238C21.1109 23.1199 21.5125 22.9997 21.9254 22.9723C22.3383 22.9448 22.7521 23.0108 23.1359 23.1652L27.3249 24.7732C27.4604 24.8253 29.1141 25.315 30.1751 24.5353C30.8907 24.0079 31.2374 22.9557 31.2069 21.4096C31.1807 20.1177 30.3144 18.718 29.3099 17.1007C27.0282 13.4125 23.9316 8.405 27.9857 0.0183083C28.1437 -0.308503 29.913 -0.0793927 29.9316 -0.127815L29.9154 -0.0856806C25.6482 7.98919 28.4707 12.5514 30.7376 16.2182C31.8699 18.0475 32.8475 19.6277 32.8826 21.3761C32.9248 23.5068 32.3457 25.0247 31.1581 25.892C29.3475 27.2129 26.8835 26.3888 26.777 26.3587L22.5351 24.7304C22.275 24.6258 21.9859 24.6185 21.7206 24.7095C21.7077 24.7262 21.7 24.7463 21.6984 24.7673C21.7065 24.9279 21.915 25.1906 22.058 25.3117L26.2776 28.7219C26.385 28.8086 26.4692 28.9207 26.5226 29.0481C26.5761 29.1755 26.5971 29.3142 26.5839 29.4518C26.3596 31.8758 29.6276 33.1768 29.6588 33.1888C33.8368 34.7926 35.9627 30.2374 36.0524 30.0409C36.7218 28.5487 37.3655 26.8997 37.5243 24.9769C37.6563 23.2425 37.4402 21.4995 36.8887 19.8505C36.4797 18.5871 35.706 17.4539 34.8882 16.2538C34.5928 15.8217 34.2885 15.3754 34.0055 14.9249C32.7599 12.9481 31.4019 9.90418 32.002 6.6361C32.2968 5.01921 33.088 3.59785 34.3081 2.44524C34.3081 2.44524 35.6095 3.61349 34.8017 4.36388Z" fill="#1E1E1E"/>
      <path d="M27.0568 24.6706L27.1238 24.6963C27.5369 24.9096 27.9047 25.2009 28.207 25.5543C28.5349 25.9278 28.7514 26.3861 28.832 26.8769C28.9126 27.3677 28.854 27.8714 28.6629 28.3307C27.8243 30.5154 26.069 30.3787 25.4628 30.146L26.0618 28.5856L26.0415 28.5778C26.239 28.641 26.7385 28.686 27.1045 27.7325C27.4705 26.7791 26.5092 26.2508 26.3939 26.2065C26.1905 26.1187 26.0304 25.9536 25.9487 25.7474C25.867 25.5413 25.8705 25.3111 25.9585 25.1074C26.0464 24.9038 26.2115 24.7433 26.4175 24.6614C26.6234 24.5794 26.8534 24.5827 27.0568 24.6706Z" fill="#1E1E1E"/>
      <path d="M31.161 0.242212C34.002 1.33275 34.9652 3.24402 35.0146 3.34355C35.1125 3.54236 35.1275 3.77205 35.0563 3.98209C34.9851 4.19213 34.8334 4.36531 34.6347 4.46354C34.436 4.56177 34.2065 4.577 33.9968 4.50588C33.787 4.43476 33.6141 4.28311 33.5161 4.0843C33.4633 3.97985 32.3178 1.84466 28.5748 1.29228C28.3557 1.26017 28.1584 1.14225 28.0263 0.964455C27.8942 0.786659 27.8381 0.563549 27.8703 0.344212C27.9026 0.124876 28.0206 -0.0727206 28.1983 -0.205112C28.3761 -0.337504 28.599 -0.393844 28.8181 -0.361738C29.6189 -0.247005 30.4046 -0.0444712 31.161 0.242212Z" fill="#1E1E1E"/>
      <path d="M21.8064 13.8118L18.1263 9.97403L15.0172 9.38684L11.4837 12.2744L8.92693 17.3556L9.43918 23.9181L12.5108 29.3411L14.0986 33.8914L14.264 38.1988L12.7214 40.638L18.4938 43.7632L19.7109 40.5928L19.9512 35.2286L19.7458 31.8152L17.7523 28.3218L16.5514 25.1326L15.3105 22.8374L15.2278 20.6837L16.9332 18.6101L19.2897 17.999L19.4099 15.3169L21.8064 13.8118Z" fill="#F9675F"/>
      <path d="M16.9095 13.8489L16.8394 13.822L16.3881 13.6004C16.2892 13.552 16.2009 13.4846 16.1282 13.402C16.0554 13.3194 15.9996 13.2233 15.964 13.1191C15.9283 13.0149 15.9136 12.9046 15.9205 12.7947C15.9274 12.6847 15.9559 12.5772 16.0044 12.4782C16.0528 12.3793 16.1202 12.2908 16.2028 12.2179C16.2854 12.145 16.3815 12.0891 16.4856 12.0533C16.5897 12.0175 16.6999 12.0027 16.8097 12.0095C16.9195 12.0163 17.0269 12.0448 17.1258 12.0932L17.5771 12.3148C17.7803 12.4032 17.94 12.5688 18.021 12.7752C18.1021 12.9816 18.0979 13.2118 18.0094 13.4153C17.9208 13.6187 17.7552 13.7787 17.549 13.86C17.3427 13.9413 17.1127 13.9373 16.9095 13.8489Z" fill="#1E1E1E"/>
      <path d="M12.4684 39.4804C13.0172 38.7881 13.4471 37.9423 13.6342 36.9139C14.1347 34.1662 12.9441 31.5338 11.8563 29.8075C11.5901 29.383 11.3076 28.9685 11.0077 28.5293C10.1602 27.2855 9.28242 25.9996 8.79592 24.5095C8.17321 22.6504 7.92819 20.6851 8.07526 18.7291C8.25628 16.5481 8.99234 14.6678 9.69348 13.1161C10.6668 10.9671 13.691 7.36016 18.2104 9.09498C18.3849 9.16198 22.3332 10.717 22.3599 14.0896L26.2662 17.2398C26.364 17.3203 27.1781 18.0178 27.2317 18.9819C27.2444 19.2444 27.2012 19.5066 27.1049 19.7512C27.0085 19.9957 26.8613 20.217 26.673 20.4003C26.6267 20.4462 26.5752 20.4865 26.5196 20.5204C26.1592 20.7244 25.7577 20.8445 25.3447 20.872C24.9318 20.8994 24.5181 20.8335 24.1343 20.679L19.9453 19.071C19.8097 19.019 18.156 18.5292 17.095 19.309C16.3794 19.8364 16.0327 20.8885 16.0633 22.4346C16.0894 23.7266 16.9558 25.1262 17.9602 26.7436C20.2419 30.4317 23.3386 35.4392 19.2845 43.8259C19.1265 44.1527 17.3571 43.9236 17.3385 43.9721L17.3547 43.9299C21.6219 35.855 18.7994 31.2928 16.5326 27.6261C15.4003 25.7967 14.4227 24.2165 14.3875 22.4681C14.3454 20.3375 14.9245 18.8195 16.1121 17.9523C17.9226 16.6313 20.3866 17.4554 20.4931 17.4855L24.7351 19.1139C24.9952 19.2184 25.2843 19.2258 25.5496 19.1347C25.5625 19.118 25.5702 19.098 25.5717 19.0769C25.5636 18.9163 25.3551 18.6536 25.2121 18.5325L20.9926 15.1224C20.8852 15.0356 20.801 14.9235 20.7475 14.7961C20.6941 14.6687 20.673 14.53 20.6863 14.3925C20.9105 11.9684 17.6425 10.6674 17.6114 10.6554C13.4333 9.05163 11.3075 13.6068 11.2177 13.8033C10.5483 15.2956 9.90465 16.9445 9.74588 18.8673C9.61389 20.6017 9.82998 22.3448 10.3814 23.9937C10.7904 25.2572 11.5642 26.3903 12.3819 27.5904C12.6774 28.0225 12.9817 28.4688 13.2647 28.9194C14.5103 30.8961 15.8683 33.9401 15.2682 37.2081C14.9733 38.825 14.1821 40.2464 12.9621 41.399C12.9621 41.399 11.6606 40.2307 12.4684 39.4804Z" fill="#1E1E1E"/>
      <path d="M20.2133 19.1737L20.1463 19.148C19.7332 18.9347 19.3654 18.6433 19.0631 18.2899C18.7352 17.9164 18.5187 17.4582 18.4381 16.9674C18.3575 16.4766 18.4162 15.9729 18.6073 15.5135C19.4459 13.3289 21.2011 13.4655 21.8073 13.6982L21.2083 15.2587L21.2286 15.2665C21.0312 15.2032 20.5317 15.1583 20.1657 16.1117C19.7997 17.0652 20.7609 17.5935 20.8762 17.6377C21.0796 17.7256 21.2398 17.8907 21.3214 18.0968C21.4031 18.3029 21.3996 18.5331 21.3117 18.7368C21.2238 18.9405 21.0587 19.1009 20.8527 19.1829C20.6467 19.2648 20.4167 19.2615 20.2133 19.1737Z" fill="#1E1E1E"/>
      <path d="M16.1092 43.602C13.2682 42.5115 12.305 40.6002 12.2556 40.5007C12.1577 40.3019 12.1427 40.0722 12.2139 39.8621C12.2851 39.6521 12.4368 39.4789 12.6355 39.3807C12.8342 39.2825 13.0637 39.2672 13.2734 39.3384C13.4832 39.4095 13.6561 39.5611 13.7541 39.7599C13.8069 39.8644 14.9524 41.9996 18.6954 42.552C18.9145 42.5841 19.1118 42.702 19.2439 42.8798C19.376 43.0576 19.4321 43.2807 19.3999 43.5C19.3676 43.7194 19.2496 43.917 19.0719 44.0493C18.8941 44.1817 18.6712 44.2381 18.4521 44.206C17.6513 44.0912 16.8656 43.8887 16.1092 43.602Z" fill="#1E1E1E"/>
    </g>
  </g>
</svg>
